<svg xmlns="http://www.w3.org/2000/svg" width="32.963" height="32.957" viewBox="0 0 32.963 32.957"><defs><style>.a{fill:#f84525;opacity:0;}.b{fill:#fff;}</style></defs><g transform="translate(0 0)"><circle class="a" cx="4.689" cy="4.689" r="4.689" transform="translate(11.793 11.79)"/><g transform="translate(0 0)"><g transform="translate(0 0)"><path class="b" d="M31.836,12.17v-.532h2.127V10.271L18.74,1.347a2.529,2.529,0,0,0-2.518,0L1,10.271v1.368H3.127v.532a1.593,1.593,0,0,0,1.063,1.5V28.75a1.592,1.592,0,0,0-1.063,1.5v.532H2.595A1.6,1.6,0,0,0,1,32.373v1.595H33.963V32.373a1.6,1.6,0,0,0-1.595-1.595h-.532v-.532a1.593,1.593,0,0,0-1.063-1.5V13.667a1.593,1.593,0,0,0,1.063-1.5ZM2.583,10.575,16.76,2.265a1.45,1.45,0,0,1,1.443,0l14.177,8.31H30.385l-12.9-7.527-12.9,7.527Zm27.658,19.14a.533.533,0,0,1,.532.532v.532H26.52v-.532a.533.533,0,0,1,.532-.532Zm-2.658-1.063V13.765h2.127V28.652Zm-1.063.1a1.593,1.593,0,0,0-1.063,1.5v.532H23.847a2.631,2.631,0,0,0,.545-1.595V13.234a2.631,2.631,0,0,0-.545-1.595h1.609v.532a1.593,1.593,0,0,0,1.063,1.5ZM21.735,10.575h-2.14A2.631,2.631,0,0,0,20.14,8.98a2.658,2.658,0,0,0-5.317,0,2.631,2.631,0,0,0,.545,1.595H6.688l10.793-6.3,10.793,6.3Zm-10.1,15.95v-11.7h11.7v11.7Zm11.7,1.063v1.595a1.6,1.6,0,0,1-1.595,1.595H13.228a1.6,1.6,0,0,1-1.595-1.595V27.588Zm-11.7-13.823v-.532a1.6,1.6,0,0,1,1.595-1.595h8.507a1.6,1.6,0,0,1,1.595,1.595v.532ZM15.886,8.98a1.595,1.595,0,1,1,1.595,1.595A1.6,1.6,0,0,1,15.886,8.98Zm-4.771,21.8H9.507v-.532a1.593,1.593,0,0,0-1.063-1.5V13.667a1.593,1.593,0,0,0,1.063-1.5v-.532h1.609a2.631,2.631,0,0,0-.545,1.595v15.95A2.631,2.631,0,0,0,11.115,30.778ZM4.722,12.7a.533.533,0,0,1-.532-.532v-.532H8.443v.532a.533.533,0,0,1-.532.532ZM7.38,13.765V28.652H5.253V13.765ZM4.19,30.247a.533.533,0,0,1,.532-.532h3.19a.533.533,0,0,1,.532.532v.532H4.19Zm28.178,1.595a.533.533,0,0,1,.532.532V32.9H2.063v-.532a.533.533,0,0,1,.532-.532H32.368ZM30.241,12.7h-3.19a.533.533,0,0,1-.532-.532v-.532h4.253v.532A.533.533,0,0,1,30.241,12.7Z" transform="translate(-1 -1.012)"/><path class="b" d="M30,53h1.091v.545H30Z" transform="translate(-14.064 -22.77)"/><path class="b" d="M29.091,30.091a.546.546,0,0,1,.545.545h.545a1.09,1.09,0,0,0-.818-1.052V29h-.545v.545H28v1.091a1.092,1.092,0,0,0,1.091,1.091.546.546,0,0,1,.545.545v.545h-.545a.546.546,0,0,1-.545-.545H28a1.09,1.09,0,0,0,.818,1.052v.584h.545v-.545h.818V32.272a1.092,1.092,0,0,0-1.091-1.091.546.546,0,0,1-.545-.545v-.545Z" transform="translate(-12.609 -11.154)"/><circle class="b" cx="0.273" cy="0.273" r="0.273" transform="translate(20.531 7.558)"/><circle class="b" cx="0.273" cy="0.273" r="0.273" transform="translate(11.886 7.558)"/><path class="b" d="M23,29h.545v.545H23Z" transform="translate(-11.114 -13.878)"/><path class="b" d="M23,33h.545v.545H23Z" transform="translate(-11.114 -15.717)"/><path class="b" d="M23,37h.545v.545H23Z" transform="translate(-11.114 -17.556)"/><path class="b" d="M39,29h.545v.545H39Z" transform="translate(-18.469 -13.878)"/><path class="b" d="M39,33h.545v.545H39Z" transform="translate(-18.469 -15.717)"/><path class="b" d="M39,37h.545v.545H39Z" transform="translate(-18.469 -17.556)"/></g></g></g></svg>