<svg xmlns="http://www.w3.org/2000/svg" width="38.795" height="30.035" viewBox="0 0 38.795 30.035"><defs><style>.a{fill:#f84525;opacity:0;}.b{fill:#fff;}</style></defs><circle class="a" cx="3.487" cy="3.487" r="3.487" transform="translate(15.803 11.852)"/><g transform="translate(0 0)"><path class="b" d="M44.6,64H10.19A2.192,2.192,0,0,0,8,66.19V91.845a2.192,2.192,0,0,0,2.19,2.19H44.6a2.192,2.192,0,0,0,2.19-2.19V66.19A2.192,2.192,0,0,0,44.6,64Zm.939,27.845a.939.939,0,0,1-.939.939H10.19a.939.939,0,0,1-.939-.939V66.19a.939.939,0,0,1,.939-.939H44.6a.939.939,0,0,1,.939.939Z" transform="translate(-8 -64)"/><path class="b" d="M216.318,176.681a.626.626,0,0,0,.63-.008l6.257-3.754a.626.626,0,0,0,0-1.073l-6.257-3.754a.626.626,0,0,0-.948.536v7.509A.626.626,0,0,0,216.318,176.681Zm.934-6.948,4.415,2.649-4.415,2.649Z" transform="translate(-199.731 -159.867)"/><path class="b" d="M160.134,136.269A8.134,8.134,0,1,0,152,128.134,8.134,8.134,0,0,0,160.134,136.269Zm0-15.017a6.883,6.883,0,1,1-6.883,6.883A6.883,6.883,0,0,1,160.134,121.251Z" transform="translate(-140.737 -115.62)"/><path class="b" d="M148.023,361.251a.626.626,0,0,1-.626.626H131.754a.626.626,0,1,1-1.251,0h-1.877a.626.626,0,0,1,0-1.251H130.5a.626.626,0,1,1,1.251,0H147.4A.626.626,0,0,1,148.023,361.251Z" transform="translate(-118.614 -336.848)"/></g></svg>