<svg xmlns="http://www.w3.org/2000/svg" width="37.909" height="46.868" viewBox="0 0 37.909 46.868"><defs><style>.a{fill:#fff;}</style></defs><g transform="translate(-5.846 16.27) rotate(-28)"><g transform="translate(0 0)"><g transform="translate(1.557 12.87)"><path class="a" d="M9.454.64A.576.576,0,0,0,8.978.327L4.119,0a.567.567,0,0,0-.576.366L.04,9.32a.577.577,0,0,0,.884.672l2.907-2.18,1.693.338a.577.577,0,0,0,.653-.36A37.533,37.533,0,0,1,9.429,1.21.578.578,0,0,0,9.454.64ZM5.275,6.923,3.8,6.629a.582.582,0,0,0-.46.1L1.855,7.85,4.464,1.183l3.487.232A39,39,0,0,0,5.275,6.923Z"/></g><g transform="translate(11.677 23.581)"><path class="a" d="M10.106,5.4,9.782.54A.578.578,0,0,0,8.9.089,37.551,37.551,0,0,1,2.318,3.34a.577.577,0,0,0-.36.653L2.3,5.686.116,8.592a.578.578,0,0,0,.462.925.61.61,0,0,0,.211-.039l8.952-3.5A.578.578,0,0,0,10.106,5.4ZM2.258,7.662l1.117-1.49a.578.578,0,0,0,.1-.46l-.294-1.47A38.976,38.976,0,0,0,8.692,1.566l.233,3.487Z"/></g><g transform="translate(7.396 17.328)"><path class="a" d="M9.353,0H5.462a.578.578,0,0,0-.5.3L.073,9.073a.578.578,0,0,0,.5.858.571.571,0,0,0,.3-.084L9.652,4.537a.577.577,0,0,0,.278-.494V.578A.578.578,0,0,0,9.353,0ZM8.776,3.718,2.14,7.733,5.8,1.156H8.776Z"/></g><g transform="translate(6.617 0.008)"><g transform="translate(0 0)"><path class="a" d="M28.01.548A.578.578,0,0,0,27.482.02C27.29.005,8.271-1.322.038,20.24a.577.577,0,0,0,.131.615L2.916,23.6a.577.577,0,0,0,.914-.13l2.751-5H9.555v2.57L4.529,24.218a.578.578,0,0,0-.1.9l2.746,2.746a.577.577,0,0,0,.408.169.569.569,0,0,0,.206-.038C29.353,19.759,28.026.74,28.01.548ZM24.98,10.8C22.953,15.81,18.315,22.627,7.726,26.779L5.756,24.809l4.684-2.957a.579.579,0,0,0,.269-.489V17.9a.578.578,0,0,0-.578-.578H6.239a.578.578,0,0,0-.506.3L3.188,22.241,1.251,20.3C8.478,1.867,23.883,1.113,26.878,1.155A25.6,25.6,0,0,1,24.98,10.8Z"/></g></g><g transform="translate(0 24.044)"><path class="a" d="M9.893,1.465a.576.576,0,0,0-.521-.226A.578.578,0,0,0,9.146.718a3.613,3.613,0,0,0-3.085-.6A3.885,3.885,0,0,0,3.466,2.283L.052,9.795a.577.577,0,0,0,.765.765L8.329,7.144A3.883,3.883,0,0,0,10.494,4.55,3.611,3.611,0,0,0,9.893,1.465Zm-.519,2.8A2.736,2.736,0,0,1,7.851,6.093L1.741,8.871,4.518,2.76A2.734,2.734,0,0,1,6.346,1.236a2.613,2.613,0,0,1,.642-.081,2.439,2.439,0,0,1,1.032.226l-.55.973a.578.578,0,0,0,.787.787l.973-.55A2.5,2.5,0,0,1,9.375,4.266Z"/></g><g transform="translate(21.887 0)"><path class="a" d="M12.74.557a.578.578,0,0,0-.528-.528A25.8,25.8,0,0,0,.336,2.506a.577.577,0,0,0-.167.933l9.16,9.16a.577.577,0,0,0,.408.169.613.613,0,0,0,.1-.009.578.578,0,0,0,.423-.327A25.78,25.78,0,0,0,12.74.557ZM9.55,11.186,1.582,3.218A25.7,25.7,0,0,1,11.608,1.161,25.633,25.633,0,0,1,9.55,11.186Z"/></g><g transform="translate(17.006 7.691)"><path class="a" d="M8.5,1.457A4.979,4.979,0,1,0,8.5,8.5,4.986,4.986,0,0,0,8.5,1.457ZM7.685,7.684a3.824,3.824,0,1,1,0-5.411A3.831,3.831,0,0,1,7.685,7.684Z"/></g><g transform="translate(19.207 9.892)"><path class="a" d="M3.926,3.926a1.624,1.624,0,1,1,0-2.3A.577.577,0,1,0,4.743.813a2.778,2.778,0,1,0,0,3.93.577.577,0,0,0-.817-.817Z"/></g></g></g></svg>