<svg xmlns="http://www.w3.org/2000/svg" width="54.591" height="42.062" viewBox="0 0 54.591 42.062"><defs><style>.a{fill:#f84525;opacity:0;}.b{fill:#fff;}</style></defs><g transform="translate(0 0)"><circle class="a" cx="5.079" cy="5.079" r="5.079" transform="translate(22.215 15.952)"/><path class="b" d="M54.59,69.055A5.109,5.109,0,0,0,46.011,65.3a2.862,2.862,0,0,0-3.9,3.9l-8,8V65.236h5.122a.8.8,0,0,0,0-1.6H34.106V59.551a.8.8,0,0,0-1.6,0v4.086H13.543a.8.8,0,0,0,0,1.6h3.49L7.548,70.706l-.028.017V65.236h2.824a.8.8,0,0,0,0-1.6H7.52V59.551a.8.8,0,1,0-1.6,0v4.085H.8a.8.8,0,0,0,0,1.6H5.921V94.329H.8a.8.8,0,1,0,0,1.6H5.921v4.085a.8.8,0,0,0,1.6,0V95.928H27.386a.8.8,0,1,0,0-1.6H23l3.373-1.946a1.871,1.871,0,0,0,1.219.454,1.91,1.91,0,0,0,.642-.112L32.507,91.2v3.128H30.584a.8.8,0,1,0,0,1.6h1.923v4.086a.8.8,0,1,0,1.6,0V95.928h5.122a.8.8,0,1,0,0-1.6H34.106v-3.7l1.423-.507h0a.8.8,0,0,0,.076-.032l.017-.009.053-.03.023-.014L35.746,90l.018-.014c.021-.017.041-.034.059-.053l0,0L49.333,76.428a2.862,2.862,0,0,0,3.9-3.9,5.07,5.07,0,0,0,1.36-3.469Zm-2.628-2.483a3.509,3.509,0,0,1,.2,4.742l-4.945-4.945A3.516,3.516,0,0,1,51.963,66.572ZM30.709,90.143l-2.317-2.317L29.756,84a1.832,1.832,0,0,1,1.461.273c.305.305.378.966.209,1.911,0,0,0,.009,0,.014,0,.023-.007.047-.008.071s0,.019,0,.028,0,.042,0,.062a.8.8,0,0,0,.939.753c.945-.169,1.606-.1,1.911.209a1.832,1.832,0,0,1,.273,1.461ZM35.4,86.188a2.535,2.535,0,0,0-1.251-.666l7.132-7.132a.8.8,0,0,0-1.131-1.131l-7.132,7.132A2.425,2.425,0,0,0,31.1,82.475L43.164,70.407l1.917,1.917-2.325,2.325a.8.8,0,0,0,1.131,1.131l2.325-2.325,1.917,1.917L36.06,87.44a2.533,2.533,0,0,0-.665-1.252ZM32.507,65.236v5.494l-.022-.014L23,65.236ZM7.523,73.516a1.655,1.655,0,0,1,.825-1.425L19.2,65.833a1.648,1.648,0,0,1,1.644,0L31.684,72.1a1.652,1.652,0,0,1,.823,1.425V78.8l-3.526,3.526V76.481a3.253,3.253,0,0,0-1.62-2.81L21.64,70.365a3.253,3.253,0,0,0-3.244,0l-5.725,3.3a3.254,3.254,0,0,0-1.624,2.809v6.608a3.252,3.252,0,0,0,1.62,2.81L18.388,89.2a3.253,3.253,0,0,0,3.244,0l5.725-3.3.031-.019-1.577,4.427a1.913,1.913,0,0,0-.111.615L20.832,93.73a1.651,1.651,0,0,1-1.646,0L8.343,87.464a1.648,1.648,0,0,1-.819-1.425Zm19.858,2.965v6.608a1.65,1.65,0,0,1-.824,1.424l-5.725,3.3a1.649,1.649,0,0,1-1.645,0l-5.722-3.306a1.649,1.649,0,0,1-.821-1.425V76.475a1.65,1.65,0,0,1,.824-1.424l5.725-3.3a1.649,1.649,0,0,1,1.645,0l5.722,3.306A1.649,1.649,0,0,1,27.382,76.481ZM7.52,94.329V88.835l.022.014,9.483,5.48H7.52Zm20.171-3.11a.293.293,0,0,1-.375-.375l.481-1.35,1.244,1.244ZM51.635,74.83a1.264,1.264,0,0,1-1.786,0l-.025-.025-6.1-6.1-.025-.025A1.263,1.263,0,0,1,45.491,66.9l6.145,6.145a1.264,1.264,0,0,1,0,1.786Z" transform="translate(0 -58.751)"/></g></svg>