<svg xmlns="http://www.w3.org/2000/svg" width="34.324" height="34.316" viewBox="0 0 34.324 34.316"><defs><style>.a{fill:#f84525;opacity:0;}.b{fill:#fff;}</style></defs><g transform="translate(0 0)"><circle class="a" cx="8.502" cy="8.502" r="8.502" transform="translate(8.387 9.032)"/><path class="b" d="M27.372,10.467A9.621,9.621,0,0,0,27.455,9.2,8.58,8.58,0,0,0,21.029.653,7.886,7.886,0,0,0,12.066,5.82a4.812,4.812,0,0,0-6.017.156,5.922,5.922,0,0,0-1.779,6.268A7.528,7.528,0,0,0,0,19.234a7.5,7.5,0,0,0,4.365,6.919.559.559,0,0,0,.741-.355.643.643,0,0,0-.325-.808,6.281,6.281,0,0,1-3.634-6.052,6.181,6.181,0,0,1,4.047-5.732.592.592,0,0,0,.357-.347.674.674,0,0,0-.01-.521,4.625,4.625,0,0,1-.4-1.888A4.394,4.394,0,0,1,7.586,6.431a3.764,3.764,0,0,1,4.348.876.54.54,0,0,0,.542.153.6.6,0,0,0,.4-.424,6.8,6.8,0,0,1,8.357-5.048,7.561,7.561,0,0,1,4.892,8.948.664.664,0,0,0,.122.55.541.541,0,0,0,.48.215c.053,0,.1,0,.154,0a6.445,6.445,0,0,1,6.156,5.408,7.04,7.04,0,0,1-3.551,7.7.622.622,0,0,0-.344.509.647.647,0,0,0,.24.575.533.533,0,0,0,.577.052A8.3,8.3,0,0,0,34.2,17.1a7.7,7.7,0,0,0-6.832-6.635Zm0,0" transform="translate(-0.001 -0.48)"/><path class="b" d="M111.516,176.355H88.556c-.352,0-.638.205-.638.459V181.4c0,.253.286.459.638.459h22.96c.352,0,.638-.205.638-.459v-4.586C112.154,176.56,111.868,176.355,111.516,176.355Zm-.638,4.586H89.194v-3.669h21.685Zm0,0" transform="translate(-82.878 -163.154)"/><path class="b" d="M343.918,200.355h.917v.917h-.917Zm0,0" transform="translate(-319.156 -185.964)"/><path class="b" d="M311.918,200.355h.917v.917h-.917Zm0,0" transform="translate(-289.46 -185.964)"/><path class="b" d="M279.918,200.355h.917v.917h-.917Zm0,0" transform="translate(-259.764 -185.964)"/><path class="b" d="M247.918,200.355h.917v.917h-.917Zm0,0" transform="translate(-230.068 -185.964)"/><path class="b" d="M215.918,200.355h.917v.917h-.917Zm0,0" transform="translate(-200.372 -185.964)"/><path class="b" d="M343.918,232.355h.917v.917h-.917Zm0,0" transform="translate(-319.156 -215.66)"/><path class="b" d="M311.918,232.355h.917v.917h-.917Zm0,0" transform="translate(-289.46 -215.66)"/><path class="b" d="M279.918,232.355h.917v.917h-.917Zm0,0" transform="translate(-259.764 -215.66)"/><path class="b" d="M247.918,232.355h.917v.917h-.917Zm0,0" transform="translate(-230.068 -215.66)"/><path class="b" d="M215.918,232.355h.917v.917h-.917Zm0,0" transform="translate(-200.372 -215.66)"/><path class="b" d="M183.918,200.355h.917v.917h-.917Zm0,0" transform="translate(-170.676 -185.964)"/><path class="b" d="M183.918,232.355h.917v.917h-.917Zm0,0" transform="translate(-170.676 -215.66)"/><path class="b" d="M121.294,203.107a1.376,1.376,0,1,0-1.376-1.376A1.376,1.376,0,0,0,121.294,203.107Zm0-1.834a.459.459,0,1,1-.459.459A.459.459,0,0,1,121.294,201.272Zm0,0" transform="translate(-111.154 -185.747)"/><path class="b" d="M111.516,280.355H88.556c-.352,0-.638.205-.638.459V285.4c0,.253.286.459.638.459h22.96c.352,0,.638-.205.638-.459v-4.586C112.154,280.56,111.868,280.355,111.516,280.355Zm-.638,4.586H89.194v-3.669h21.685Zm0,0" transform="translate(-82.878 -259.348)"/><path class="b" d="M343.918,304.355h.917v.917h-.917Zm0,0" transform="translate(-319.156 -282.476)"/><path class="b" d="M311.918,304.355h.917v.917h-.917Zm0,0" transform="translate(-289.46 -282.476)"/><path class="b" d="M279.918,304.355h.917v.917h-.917Zm0,0" transform="translate(-259.764 -282.476)"/><path class="b" d="M247.918,304.355h.917v.917h-.917Zm0,0" transform="translate(-230.068 -282.476)"/><path class="b" d="M215.918,304.355h.917v.917h-.917Zm0,0" transform="translate(-200.372 -282.476)"/><path class="b" d="M343.918,336.355h.917v.917h-.917Zm0,0" transform="translate(-319.156 -312.172)"/><path class="b" d="M311.918,336.355h.917v.917h-.917Zm0,0" transform="translate(-289.46 -312.172)"/><path class="b" d="M279.918,336.355h.917v.917h-.917Zm0,0" transform="translate(-259.764 -312.172)"/><path class="b" d="M247.918,336.355h.917v.917h-.917Zm0,0" transform="translate(-230.068 -312.172)"/><path class="b" d="M215.918,336.355h.917v.917h-.917Zm0,0" transform="translate(-200.372 -312.172)"/><path class="b" d="M183.918,304.355h.917v.917h-.917Zm0,0" transform="translate(-170.676 -282.476)"/><path class="b" d="M183.918,336.355h.917v.917h-.917Zm0,0" transform="translate(-170.676 -312.172)"/><path class="b" d="M121.294,307.107a1.376,1.376,0,1,0-1.376-1.376A1.376,1.376,0,0,0,121.294,307.107Zm0-1.834a.459.459,0,1,1-.459.459A.459.459,0,0,1,121.294,305.272Zm0,0" transform="translate(-111.154 -282.146)"/><path class="b" d="M111.516,384.355H88.556c-.352,0-.638.205-.638.459V389.4c0,.253.286.459.638.459h22.96c.352,0,.638-.205.638-.459v-4.586C112.154,384.56,111.868,384.355,111.516,384.355Zm-.638,4.586H89.194v-3.669h21.685Zm0,0" transform="translate(-82.878 -355.542)"/><path class="b" d="M343.918,408.355h.917v.917h-.917Zm0,0" transform="translate(-319.156 -378.166)"/><path class="b" d="M311.918,408.355h.917v.917h-.917Zm0,0" transform="translate(-289.46 -378.166)"/><path class="b" d="M279.918,408.355h.917v.917h-.917Zm0,0" transform="translate(-259.764 -378.166)"/><path class="b" d="M247.918,408.355h.917v.917h-.917Zm0,0" transform="translate(-230.068 -378.166)"/><path class="b" d="M215.918,408.355h.917v.917h-.917Zm0,0" transform="translate(-200.372 -378.166)"/><path class="b" d="M343.918,440.355h.917v.917h-.917Zm0,0" transform="translate(-319.156 -408.332)"/><path class="b" d="M311.918,440.355h.917v.917h-.917Zm0,0" transform="translate(-289.46 -408.332)"/><path class="b" d="M279.918,440.355h.917v.917h-.917Zm0,0" transform="translate(-259.764 -408.332)"/><path class="b" d="M247.918,440.355h.917v.917h-.917Zm0,0" transform="translate(-230.068 -408.332)"/><path class="b" d="M215.918,440.355h.917v.917h-.917Zm0,0" transform="translate(-200.372 -408.332)"/><path class="b" d="M183.918,408.355h.917v.917h-.917Zm0,0" transform="translate(-170.676 -378.166)"/><path class="b" d="M183.918,440.355h.917v.917h-.917Zm0,0" transform="translate(-170.676 -408.332)"/><path class="b" d="M121.294,411.107a1.376,1.376,0,1,0-1.376-1.376A1.376,1.376,0,0,0,121.294,411.107Zm0-1.834a.459.459,0,1,1-.459.459A.459.459,0,0,1,121.294,409.272Zm0,0" transform="translate(-111.154 -378.166)"/></g></svg>