<svg xmlns="http://www.w3.org/2000/svg" width="35.29" height="31.135" viewBox="0 0 35.29 31.135"><defs><style>.a{fill:#f84525;opacity:0;}.b{fill:#fff;}</style></defs><circle class="a" cx="3.934" cy="3.934" r="3.934" transform="translate(13.842 11.534)"/><path class="b" d="M119.352,188.575a.58.58,0,0,1-.377-.139l-3.77-3.21a.583.583,0,0,1,0-.887l3.77-3.21a.582.582,0,1,1,.755.887l-3.249,2.767,3.249,2.767a.583.583,0,0,1-.378,1.026Zm0,0" transform="translate(-105.428 -165.925)"/><path class="b" d="M250.29,188.575a.583.583,0,0,1-.378-1.026l3.249-2.767-3.249-2.767a.582.582,0,0,1,.755-.887l3.77,3.21a.583.583,0,0,1,0,.887l-3.77,3.21A.58.58,0,0,1,250.29,188.575Zm0,0" transform="translate(-228.924 -165.925)"/><path class="b" d="M189.537,165.346a.592.592,0,0,1-.121-.013.583.583,0,0,1-.45-.69l2.35-11.156a.583.583,0,1,1,1.14.24l-2.35,11.156A.583.583,0,0,1,189.537,165.346Zm0,0" transform="translate(-173.227 -140.288)"/><path class="b" d="M31.378,31.135H3.912A3.916,3.916,0,0,1,0,27.224V3.912A3.916,3.916,0,0,1,3.912,0H31.378A3.916,3.916,0,0,1,35.29,3.912V27.224A3.916,3.916,0,0,1,31.378,31.135ZM3.912,1.165A2.75,2.75,0,0,0,1.165,3.912V27.224A2.75,2.75,0,0,0,3.912,29.97H31.378a2.75,2.75,0,0,0,2.747-2.747V3.912a2.75,2.75,0,0,0-2.747-2.747Zm0,0"/><path class="b" d="M34.707,99.255H.583a.583.583,0,1,1,0-1.165H34.707a.583.583,0,1,1,0,1.165Zm0,0" transform="translate(0 -89.926)"/><path class="b" d="M99.293,37.977a1.844,1.844,0,1,1,1.844-1.844A1.846,1.846,0,0,1,99.293,37.977Zm0-2.522a.679.679,0,1,0,.679.679A.679.679,0,0,0,99.293,35.454Zm0,0" transform="translate(-89.339 -31.435)"/><path class="b" d="M31.231,37.762a1.844,1.844,0,1,1,1.844-1.844A1.846,1.846,0,0,1,31.231,37.762Zm0-2.522a.679.679,0,1,0,.679.679A.68.68,0,0,0,31.231,35.24Zm0,0" transform="translate(-26.941 -31.238)"/><path class="b" d="M167.359,38.191a1.844,1.844,0,1,1,1.844-1.844A1.846,1.846,0,0,1,167.359,38.191Zm0-2.522a.679.679,0,1,0,.679.679A.679.679,0,0,0,167.359,35.669Zm0,0" transform="translate(-151.74 -31.632)"/></svg>