<svg xmlns="http://www.w3.org/2000/svg" width="33.643" height="32.802" viewBox="0 0 33.643 32.802"><defs><style>.a{fill:#fff;}</style></defs><path class="a" d="M27.685.45H5.958A5.953,5.953,0,0,0,0,6.408V27.294a5.953,5.953,0,0,0,5.958,5.958H27.685a5.953,5.953,0,0,0,5.958-5.958V6.408A5.953,5.953,0,0,0,27.685.45Zm4.542,26.3a5.079,5.079,0,0,1-5.074,5.1H6.49A5.1,5.1,0,0,1,1.4,26.761V6.94A5.1,5.1,0,0,1,6.49,1.852H27.138A5.088,5.088,0,0,1,32.227,6.94ZM13.3,15.8l3.925,7.542c.07.112.028.224-.084.224H14.7a.275.275,0,0,1-.294-.182c-.9-1.85-1.808-3.7-2.747-5.691h-.028c-.841,1.878-1.766,3.855-2.663,5.705a.269.269,0,0,1-.252.154H6.406c-.14,0-.154-.112-.084-.2l3.841-7.317-3.715-7.4a.113.113,0,0,1,.084-.2H8.943a.221.221,0,0,1,.252.154c.883,1.85,1.78,3.757,2.621,5.621h.028c.813-1.85,1.71-3.771,2.579-5.607.07-.112.112-.182.252-.182h2.257c.112,0,.154.084.084.2Zm4.612,2.285a5.483,5.483,0,0,1,5.621-5.817,6.216,6.216,0,0,1,.729.028V8.58a.14.14,0,0,1,.14-.14H26.62c.112,0,.14.042.14.112V21.421a9.985,9.985,0,0,0,.07,1.374c0,.084-.028.112-.112.154a8.35,8.35,0,0,1-3.589.813C20.087,23.776,17.915,21.9,17.915,18.084Zm6.35-3.589a2.12,2.12,0,0,0-.813-.14c-1.766,0-3,1.36-3,3.617,0,2.579,1.262,3.617,2.846,3.617a2.645,2.645,0,0,0,.967-.154V14.5Z" transform="translate(0 -0.45)"/></svg>