<svg xmlns="http://www.w3.org/2000/svg" width="34.205" height="34.204" viewBox="0 0 34.205 34.204"><defs><style>.a{fill:#fff;}</style></defs><g transform="translate(0 0)"><path class="a" d="M13.506,17.691H8.271a.569.569,0,0,0-.4.167L5.754,19.972H5.316a1.71,1.71,0,1,0,0,1.14h.675a.569.569,0,0,0,.4-.167l2.113-2.113h5a1.693,1.693,0,0,0,2.731.707l2.323,1.292a1.689,1.689,0,0,0-.029.281,1.71,1.71,0,0,0,3.42,0,1.689,1.689,0,0,0-.029-.281l2.323-1.292a1.7,1.7,0,1,0,1.7-2.882V14.165a1.705,1.705,0,1,0-1.7-2.882L21.924,9.991a1.676,1.676,0,0,0,.029-.28,1.71,1.71,0,0,0-3.42,0,1.689,1.689,0,0,0,.029.281l-2.323,1.292a1.693,1.693,0,0,0-2.731.707h-5L6.394,9.877a.569.569,0,0,0-.4-.167H5.316a1.71,1.71,0,1,0,0,1.14h.439l2.113,2.113a.569.569,0,0,0,.4.167h5.236a1.709,1.709,0,0,0,1.035,1.035v.675H5.316a1.71,1.71,0,1,0,0,1.14h9.226v.675A1.709,1.709,0,0,0,13.506,17.691Zm-9.8,3.42a.57.57,0,1,1,.57-.57A.571.571,0,0,1,3.71,21.112Zm0-10.261a.57.57,0,1,1,.57-.57A.571.571,0,0,1,3.71,10.85Zm0,5.131a.57.57,0,1,1,.57-.57A.571.571,0,0,1,3.71,15.981Zm11.4,2.85a.57.57,0,1,1,.57-.57A.571.571,0,0,1,15.112,18.831Zm1.126-4.994,2.323,1.292a1.4,1.4,0,0,0,0,.562l-2.323,1.292a1.714,1.714,0,0,0-.556-.328V14.165a1.686,1.686,0,0,0,.556-.328Zm8.01,3.147-2.323-1.292a1.4,1.4,0,0,0,0-.562l2.323-1.292a1.713,1.713,0,0,0,.556.328v2.491A1.686,1.686,0,0,0,24.247,16.984Zm-7.454,1,2.323-1.292a1.714,1.714,0,0,0,.556.328v2.491a1.7,1.7,0,0,0-.556.328l-2.323-1.292a1.4,1.4,0,0,0,0-.563Zm3.449-3.139a.57.57,0,1,1-.57.57A.571.571,0,0,1,20.242,14.841Zm.57,2.175a1.7,1.7,0,0,0,.556-.328l2.323,1.292a1.4,1.4,0,0,0,0,.562l-2.323,1.292a1.713,1.713,0,0,0-.556-.328Zm2.879-4.175-2.323,1.292a1.713,1.713,0,0,0-.556-.328V11.315a1.7,1.7,0,0,0,.556-.328l2.323,1.292a1.4,1.4,0,0,0,0,.563Zm-4.019.964a1.7,1.7,0,0,0-.556.328l-2.323-1.292a1.4,1.4,0,0,0,0-.562l2.323-1.292a1.713,1.713,0,0,0,.556.328Zm.57,7.876a.57.57,0,1,1,.57-.57A.571.571,0,0,1,20.242,21.682Zm5.131-2.85a.57.57,0,1,1,.57-.57A.571.571,0,0,1,25.373,18.831Zm0-6.841a.57.57,0,1,1-.57.57A.571.571,0,0,1,25.373,11.991ZM20.242,9.14a.57.57,0,1,1-.57.57A.571.571,0,0,1,20.242,9.14Zm-5.131,2.85a.57.57,0,1,1-.57.57A.571.571,0,0,1,15.112,11.991Z" transform="translate(-2 -4.58)"/><path class="a" d="M18.591,36.2h9.121a.57.57,0,0,0,.57-.57V31.644h7.411a.57.57,0,0,0,.57-.57V24.233h3.99a.571.571,0,0,0,.544-.741L37.956,14.4A12.819,12.819,0,0,0,24.377,2.023a12.878,12.878,0,0,0-10.028,5.94l.96.615a11.735,11.735,0,0,1,9.135-5.417A11.679,11.679,0,0,1,36.82,14.57a.545.545,0,0,0,.08.272l2.578,8.251H35.693a.57.57,0,0,0-.57.57v2.28h-1.71a1.712,1.712,0,0,1-1.71-1.71h-1.14a2.854,2.854,0,0,0,2.85,2.85h1.71V30.5H27.712a.57.57,0,0,0-.57.57v3.991H19.161v-.551a26.363,26.363,0,0,0-4.01-13.639,11.581,11.581,0,0,1-1.3-3.058l-1.1.292a12.722,12.722,0,0,0,1.432,3.359,25.227,25.227,0,0,1,3.844,13.046v1.121a.57.57,0,0,0,.57.57Z" transform="translate(-6.62 -2.001)"/></g></svg>