<svg xmlns="http://www.w3.org/2000/svg" width="23.494" height="41.487" viewBox="0 0 23.494 41.487"><defs><style>.a{fill:#fff;}</style></defs><path class="a" d="M26.426,0H8.97A3.02,3.02,0,0,0,5.951,3.022V38.468A3.018,3.018,0,0,0,8.97,41.487H26.426a3.02,3.02,0,0,0,3.019-3.019V3.022A3.022,3.022,0,0,0,26.426,0ZM13.391,1.835h8.617c.218,0,.395.325.395.727s-.177.729-.395.729H13.391c-.219,0-.393-.327-.393-.729S13.171,1.835,13.391,1.835ZM17.7,38.5a1.928,1.928,0,1,1,1.925-1.929A1.93,1.93,0,0,1,17.7,38.5ZM27.183,31.9H8.214V5.1H27.183V31.9Z" transform="translate(-5.951)"/></svg>