<svg xmlns="http://www.w3.org/2000/svg" width="48.54" height="48.536" viewBox="0 0 48.54 48.536"><defs><style>.a{fill:#fff;}</style></defs><g transform="translate(0 0)"><path class="a" d="M22.225,7H7.663A2.434,2.434,0,0,0,5.236,9.427v6.318L2.162,23.414A2.619,2.619,0,0,0,2,24.3v8.316a4.016,4.016,0,0,0,.809,2.427l.534.712A4.081,4.081,0,0,1,4.1,38.891L2.817,50.6a.819.819,0,0,0,.2.631.809.809,0,0,0,.6.267h8.9a.794.794,0,0,0,.607-.275.783.783,0,0,0,.194-.631L11.8,38.243a.825.825,0,0,1,.129-.6l.477-.712h9.813a2.434,2.434,0,0,0,2.427-2.427V9.427A2.434,2.434,0,0,0,22.225,7Zm-11.9,24.035.437.437a2.03,2.03,0,0,1,.251.283c0,.008.008.008.016.008l-.008.008a3.222,3.222,0,0,1,.688,1.982v.34a3.23,3.23,0,0,1-.542,1.8l-.574.858a2.4,2.4,0,0,0-.38,1.731l1.391,11.4H4.524L5.7,39.117a5.72,5.72,0,0,0-1.06-4.328L4.1,34.077a2.442,2.442,0,0,1-.485-1.456V24.3A.8.8,0,0,1,3.675,24l1.561-3.9v5.178a1.631,1.631,0,0,0,.469,1.141l.938.938a1.637,1.637,0,0,0,1.982.243l1.068-.647,1.464-.874a.654.654,0,0,1,.785.105.637.637,0,0,1,.1.8L10.2,30.048A.82.82,0,0,0,10.325,31.035Zm1.715-.574c-.04-.04-.081-.081-.121-.129l1.513-2.516a2.277,2.277,0,0,0-.34-2.783,2.332,2.332,0,0,0-2.775-.34l-.227.138V11.854H19.8V30.461Zm10.994,4.045a.809.809,0,0,1-.809.809H13.156a4.736,4.736,0,0,0,.17-1.222v-.34a4.911,4.911,0,0,0-.307-1.675h7.588a.809.809,0,0,0,.809-.809V11.045a.809.809,0,0,0-.809-.809H9.281a.809.809,0,0,0-.809.809V25.793l-.68.413-.938-.93V9.427a.809.809,0,0,1,.809-.809H22.225a.809.809,0,0,1,.809.809Z" transform="translate(-2 -2.959)"/><path class="a" d="M17.236,17a3.236,3.236,0,1,0,3.236,3.236A3.236,3.236,0,0,0,17.236,17Zm0,4.854a1.618,1.618,0,1,1,1.618-1.618A1.618,1.618,0,0,1,17.236,21.854Z" transform="translate(-4.292 -4.869)"/><path class="a" d="M41.474,14.474a1.618,1.618,0,1,0,2.288,0A1.618,1.618,0,0,0,41.474,14.474Z" transform="translate(-9.449 -4.296)"/><path class="a" d="M45.622,11.422a4.86,4.86,0,0,0-6.865,0L39.9,12.566a3.242,3.242,0,0,1,4.577,0Z" transform="translate(-9.021 -3.532)"/><path class="a" d="M47.37,8.37a8.09,8.09,0,0,0-11.441,0l1.144,1.144a6.472,6.472,0,0,1,9.153,0Z" transform="translate(-8.481 -2.768)"/><path class="a" d="M47.973,6.463l1.145-1.145a11.337,11.337,0,0,0-16.018,0l1.144,1.144a9.718,9.718,0,0,1,13.729,0Z" transform="translate(-7.94 -2.005)"/><path class="a" d="M36.809,31.281h9.708a.809.809,0,0,0,.809-.809V24.809A.809.809,0,0,0,46.517,24H36.809a.809.809,0,0,0-.809.809v5.663A.809.809,0,0,0,36.809,31.281Zm.809-5.663h8.09v4.045h-8.09Z" transform="translate(-8.494 -6.206)"/><path class="a" d="M54.652,34.562H49.8V22.427A2.434,2.434,0,0,0,47.371,20H34.427A2.434,2.434,0,0,0,32,22.427V51.551a2.434,2.434,0,0,0,2.427,2.427H47.371A2.434,2.434,0,0,0,49.8,51.551V41.034h4.854a1.623,1.623,0,0,0,1.618-1.618V36.18A1.623,1.623,0,0,0,54.652,34.562ZM48.18,51.551a.809.809,0,0,1-.809.809H34.427a.809.809,0,0,1-.809-.809V22.427a.809.809,0,0,1,.809-.809H47.371a.809.809,0,0,1,.809.809V34.562H45.543a5.655,5.655,0,0,0-5.55-2.354,5.661,5.661,0,1,0,5.55,8.826H48.18Zm6.472-12.135H45.1a.79.79,0,0,0-.7.4A4.045,4.045,0,1,1,40.244,33.8a4.44,4.44,0,0,1,.647-.049A4.045,4.045,0,0,1,44.4,35.775a.79.79,0,0,0,.7.4h9.554Z" transform="translate(-7.73 -5.442)"/><path class="a" d="M38,51h1.618v1.618H38Z" transform="translate(-8.876 -11.363)"/><path class="a" d="M42,51h1.618v1.618H42Z" transform="translate(-9.64 -11.363)"/><path class="a" d="M46,51h1.618v1.618H46Z" transform="translate(-10.404 -11.363)"/><path class="a" d="M38,55h1.618v1.618H38Z" transform="translate(-8.876 -12.127)"/><path class="a" d="M42,55h1.618v1.618H42Z" transform="translate(-9.64 -12.127)"/><path class="a" d="M46,55h1.618v1.618H46Z" transform="translate(-10.404 -12.127)"/></g></svg>