<svg xmlns="http://www.w3.org/2000/svg" width="33.586" height="33.614" viewBox="0 0 33.586 33.614"><defs><style>.a{fill:#fff;}</style></defs><g transform="translate(0 0)"><path class="a" d="M338.641,110.725a.46.46,0,0,0-.414-.444.183.183,0,0,0-.115.031l-1.545,1a.4.4,0,0,0,0,.681l1.545,1a.183.183,0,0,0,.115.031.46.46,0,0,0,.414-.444.279.279,0,0,0-.109-.237l-1.07-.693,1.07-.693A.279.279,0,0,0,338.641,110.725Zm0,0" transform="translate(-314.295 -103.041)"/><path class="a" d="M382.979,85.367a.267.267,0,0,0-.255.152L380.589,89.9a.273.273,0,0,0-.031.116.337.337,0,0,0,.341.322.3.3,0,0,0,.274-.152l2.14-4.384a.265.265,0,0,0,.024-.116A.349.349,0,0,0,382.979,85.367Zm0,0" transform="translate(-355.574 -79.763)"/><path class="a" d="M434.69,111.315l-1.544-1a.184.184,0,0,0-.116-.031.46.46,0,0,0-.413.444.279.279,0,0,0,.109.237l1.07.693-1.07.693a.279.279,0,0,0-.109.237.46.46,0,0,0,.413.444.183.183,0,0,0,.116-.031l1.544-1a.4.4,0,0,0,0-.681Zm0,0" transform="translate(-404.215 -103.041)"/><path class="a" d="M31.234,2.448h-10.6A3.812,3.812,0,0,0,17.077,0H9.966A3.81,3.81,0,0,0,6.161,3.805V8.126a1.606,1.606,0,0,0-.517,1.513l.28,1.538a1.34,1.34,0,0,0,.6.935,1.447,1.447,0,0,0,.761.2v.273A5.985,5.985,0,0,0,9.5,16.78a9.063,9.063,0,0,0,.823.663v.825a.522.522,0,0,1-.426.513l-.034.007c-.008,0-.854.223-1.959.536H4.3A1.468,1.468,0,0,0,2.832,20.9l.01.139A4.714,4.714,0,0,0,.114,24.948v.021L0,31.747a1.845,1.845,0,0,0,1.845,1.868H25.2a1.845,1.845,0,0,0,1.845-1.87l-.112-6.776c0-.007,0-.014,0-.021a4.738,4.738,0,0,0-2.869-3.981l-.1-.045,0-.026A1.468,1.468,0,0,0,22.5,19.324H19.136c-1.1-.313-1.95-.534-1.959-.536l-.034-.008a.522.522,0,0,1-.426-.513v-.825a9.11,9.11,0,0,0,.823-.663,7.193,7.193,0,0,0,1.908-2.64h3.2L22.088,16.4a.889.889,0,0,0,.38.968.888.888,0,0,0,1.04-.039l4.146-3.185h3.58a2.355,2.355,0,0,0,2.353-2.353V4.8a2.355,2.355,0,0,0-2.353-2.353ZM19.761,8.977a2.125,2.125,0,0,1,.483-.1.635.635,0,0,1,.187.587l-.278,1.531c-.041.214-.123.264-.15.281a.481.481,0,0,1-.243.055ZM7.145,3.805A2.824,2.824,0,0,1,9.966.985h7.111A2.824,2.824,0,0,1,19.9,3.805V7.931a2.866,2.866,0,0,0-.843.284v-3A1.959,1.959,0,0,0,17.1,3.258H15.767A2.011,2.011,0,0,0,14.5,3.71l-.13.107a1.337,1.337,0,0,1-1.692,0l-.131-.107a2.011,2.011,0,0,0-1.269-.453H9.945A1.959,1.959,0,0,0,7.989,5.214v3a2.864,2.864,0,0,0-.843-.283ZM7.04,11.274c-.027-.017-.109-.067-.149-.277L6.613,9.463A.636.636,0,0,1,6.8,8.876a2.125,2.125,0,0,1,.483.1v2.352a.482.482,0,0,1-.243-.055Zm-4.357,21a1.341,1.341,0,0,0,.048.357H1.846a.86.86,0,0,1-.86-.869L1.1,25a3.614,3.614,0,0,1,1.821-2.878l.6,8.435a1.456,1.456,0,0,0,.1.441,1.343,1.343,0,0,0-.939,1.279Zm20.592-1.72.611-8.571A3.666,3.666,0,0,1,25.945,25l.112,6.763a.86.86,0,0,1-.86.871h-.885a1.342,1.342,0,0,0-1.118-1.686,1.449,1.449,0,0,0,.082-.39Zm.1,1.72a.357.357,0,0,1-.356.357H4.025a.357.357,0,0,1,0-.713H23.019A.357.357,0,0,1,23.375,32.273Zm-.521-11.81a.478.478,0,0,1,.128.364l-.688,9.656a.485.485,0,0,1-.482.449H4.985a.485.485,0,0,1-.482-.449l-.688-9.656a.483.483,0,0,1,.482-.518H22.5a.479.479,0,0,1,.354.154Zm-6.689-1.139H10.879a1.5,1.5,0,0,0,.433-1.056v-.22a4.991,4.991,0,0,0,2.21.627,4.993,4.993,0,0,0,2.21-.627v.22a1.5,1.5,0,0,0,.433,1.056Zm.714-3.274a5.722,5.722,0,0,1-3.357,1.64,5.722,5.722,0,0,1-3.357-1.64,5.026,5.026,0,0,1-1.9-3.464v-3.1h.019A.688.688,0,0,0,8.973,8.8V5.214a.973.973,0,0,1,.972-.972h1.331a1.022,1.022,0,0,1,.646.23l.131.107a2.321,2.321,0,0,0,2.938,0l.131-.107a1.023,1.023,0,0,1,.646-.23H17.1a.973.973,0,0,1,.972.972V8.8a.688.688,0,0,0,.706.687v3.1A5.025,5.025,0,0,1,16.879,16.051ZM32.6,11.788a1.369,1.369,0,0,1-1.368,1.368H27.487a.491.491,0,0,0-.3.1L23.1,16.4l.651-2.628a.492.492,0,0,0-.478-.611h-3.56a3.8,3.8,0,0,0,.044-.569v-.273a1.447,1.447,0,0,0,.761-.2,1.341,1.341,0,0,0,.6-.938L21.4,9.639a1.605,1.605,0,0,0-.517-1.513V3.805c0-.125-.006-.25-.018-.372h10.37A1.369,1.369,0,0,1,32.6,4.8Zm0,0" transform="translate(-0.001 0)"/><path class="a" d="M179.594,371.679a1.851,1.851,0,1,0-1.851-1.851A1.853,1.853,0,0,0,179.594,371.679Zm0-2.717a.866.866,0,1,1-.866.866A.867.867,0,0,1,179.594,368.961Zm0,0" transform="translate(-166.073 -343.818)"/></g></svg>